<?xml version="1.0"?>
<svg xmlns="http://www.w3.org/2000/svg" id="Layer_1" data-name="Layer 1" viewBox="0 0 512 512" width="512" height="512"><title>Coins Euro</title><path d="M256,196.1a140,140,0,1,1-98.99,41A139.593,139.593,0,0,1,256,196.1Zm100,140a100,100,0,1,0-100,100A100,100,0,0,0,356,336.1Z" style="fill:#e48e66"/><circle cx="256" cy="336.1" r="100" style="fill:#f8ec7d"/><path d="M256,442.1a106,106,0,1,0-106-106A106.12,106.12,0,0,0,256,442.1Zm0-200a94,94,0,1,1-94,94A94.106,94.106,0,0,1,256,242.1Z" style="fill:#63316d"/><path d="M196.92,345.8a6,6,0,0,0,6,6h13.4a52.138,52.138,0,0,0,49.407,36.14h17.19a6,6,0,0,0,0-12H265.73a40.088,40.088,0,0,1-36.61-24.14H270.8a6,6,0,0,0,0-12H226.07c-.112-1.225-.18-2.459-.18-3.7s.068-2.475.18-3.7H270.8a6,6,0,1,0,0-12H229.125a39.784,39.784,0,0,1,36.605-24.14h17.19a6,6,0,1,0,0-12H265.73a51.848,51.848,0,0,0-49.41,36.14h-13.4a6,6,0,1,0,0,12h11.117c-.087,1.229-.147,2.462-.147,3.7s.06,2.471.147,3.7H202.92A6,6,0,0,0,196.92,345.8Z" style="fill:#63316d"/><path d="M252.93,54.22a6,6,0,0,0,6-6V35.9a6,6,0,1,0-12,0V48.22A6,6,0,0,0,252.93,54.22Z" style="fill:#63316d"/><path d="M246.93,125.34a6,6,0,0,0,12,0V69.42a6,6,0,0,0-12,0Z" style="fill:#63316d"/><path d="M301.39,127.29a6,6,0,0,0,6-6V55.9a6,6,0,1,0-12,0v65.39A6,6,0,0,0,301.39,127.29Z" style="fill:#63316d"/><path d="M295.39,155.34a6,6,0,1,0,12,0V142.62a6,6,0,0,0-12,0Z" style="fill:#63316d"/><path d="M204.46,106.62a6,6,0,0,0,6-6V55.9a6,6,0,0,0-12,0v44.72A6,6,0,0,0,204.46,106.62Z" style="fill:#63316d"/><path d="M198.46,155.34a6,6,0,0,0,12,0V121.62a6,6,0,0,0-12,0Z" style="fill:#63316d"/><path d="M156,115.68a6,6,0,0,0,6-6V75.9a6,6,0,0,0-12,0v33.78A6,6,0,0,0,156,115.68Z" style="fill:#63316d"/><path d="M150,176.69a6,6,0,0,0,12,0V131.51a6,6,0,0,0-12,0Z" style="fill:#63316d"/><path d="M150,205.34a6,6,0,1,0,12,0v-9.58a6,6,0,0,0-12,0Z" style="fill:#63316d"/><path d="M349.85,104.9a6,6,0,0,0,6-6v-23a6,6,0,1,0-12,0v23A6,6,0,0,0,349.85,104.9Z" style="fill:#63316d"/><path d="M343.85,205.34a6,6,0,1,0,12,0V120.55a6,6,0,0,0-12,0Z" style="fill:#63316d"/><path d="M152.329,438.8a5.837,5.837,0,0,0,.438.537,6.327,6.327,0,0,0,.536.438,145.744,145.744,0,0,0,205.394,0,6.327,6.327,0,0,0,.536-.438,5.837,5.837,0,0,0,.438-.537,145.872,145.872,0,0,0-.439-205.94h0a146,146,0,0,0-206.462,0h0a145.872,145.872,0,0,0-.439,205.94ZM130.55,330.1h-8.412A132.889,132.889,0,0,1,157.1,245.684l5.941,5.947a6,6,0,0,0,8.49-8.482l-5.944-5.949A132.942,132.942,0,0,1,250,202.238v8.4a6,6,0,0,0,12,0v-8.4A132.942,132.942,0,0,1,346.409,237.2l-5.944,5.949a6,6,0,0,0,8.49,8.482l5.941-5.947A132.889,132.889,0,0,1,389.862,330.1H381.45a6,6,0,1,0,0,12h8.409a133.491,133.491,0,0,1-35,84.368l-5.9-5.9a6,6,0,0,0-8.486,8.486l5.9,5.9A133.481,133.481,0,0,1,262,469.959V461.55a6,6,0,1,0-12,0v8.409a133.481,133.481,0,0,1-84.368-35.006l5.9-5.9a6,6,0,0,0-8.486-8.486l-5.9,5.9a133.491,133.491,0,0,1-35-84.368h8.409a6,6,0,0,0,0-12Z" style="fill:#63316d"/></svg>
